<mxfile host="app.diagrams.net" modified="2024-01-30T00:38:50.449Z" agent="Mozilla/5.0 (Windows NT 10.0; Win64; x64) AppleWebKit/537.36 (KHTML, like Gecko) Chrome/120.0.0.0 Safari/537.36" etag="EGFZTCeu3S1UjzJFSQO5" version="23.0.2" type="github">
  <diagram name="Page-1" id="cpn7WbJGYYBTigYuLBrb">
    <mxGraphModel dx="1323" dy="743" grid="1" gridSize="10" guides="1" tooltips="1" connect="1" arrows="1" fold="1" page="1" pageScale="1" pageWidth="850" pageHeight="1100" math="0" shadow="0">
      <root>
        <mxCell id="0" />
        <mxCell id="1" parent="0" />
        <mxCell id="fW53wgLgkCDjHRpeZXKi-1" value="" style="group" vertex="1" connectable="0" parent="1">
          <mxGeometry x="490" y="190" width="110" height="140" as="geometry" />
        </mxCell>
        <mxCell id="fW53wgLgkCDjHRpeZXKi-2" value="" style="group" vertex="1" connectable="0" parent="fW53wgLgkCDjHRpeZXKi-1">
          <mxGeometry x="-20" width="130" height="140" as="geometry" />
        </mxCell>
        <mxCell id="fW53wgLgkCDjHRpeZXKi-3" value="" style="rounded=0;whiteSpace=wrap;html=1;" vertex="1" parent="fW53wgLgkCDjHRpeZXKi-2">
          <mxGeometry x="20" width="96" height="140" as="geometry" />
        </mxCell>
        <mxCell id="fW53wgLgkCDjHRpeZXKi-4" value="" style="triangle;whiteSpace=wrap;html=1;rotation=0;" vertex="1" parent="fW53wgLgkCDjHRpeZXKi-2">
          <mxGeometry x="20" y="100" width="20" height="30" as="geometry" />
        </mxCell>
        <mxCell id="fW53wgLgkCDjHRpeZXKi-5" value="&lt;font style=&quot;font-size: 21px;&quot;&gt;CE&lt;/font&gt;" style="text;html=1;strokeColor=none;fillColor=none;align=center;verticalAlign=middle;whiteSpace=wrap;rounded=0;" vertex="1" parent="fW53wgLgkCDjHRpeZXKi-2">
          <mxGeometry x="20" y="55" width="30" height="30" as="geometry" />
        </mxCell>
        <mxCell id="fW53wgLgkCDjHRpeZXKi-6" value="&lt;font style=&quot;font-size: 21px;&quot;&gt;D&lt;/font&gt;" style="text;html=1;strokeColor=none;fillColor=none;align=center;verticalAlign=middle;whiteSpace=wrap;rounded=0;" vertex="1" parent="fW53wgLgkCDjHRpeZXKi-2">
          <mxGeometry x="20" y="10" width="20" height="30" as="geometry" />
        </mxCell>
        <mxCell id="fW53wgLgkCDjHRpeZXKi-7" value="&lt;font style=&quot;font-size: 21px;&quot;&gt;Q&lt;/font&gt;" style="text;html=1;strokeColor=none;fillColor=none;align=center;verticalAlign=middle;whiteSpace=wrap;rounded=0;" vertex="1" parent="fW53wgLgkCDjHRpeZXKi-2">
          <mxGeometry x="96" y="10" width="20" height="30" as="geometry" />
        </mxCell>
        <mxCell id="fW53wgLgkCDjHRpeZXKi-8" style="edgeStyle=orthogonalEdgeStyle;rounded=0;orthogonalLoop=1;jettySize=auto;html=1;exitX=0;exitY=0.5;exitDx=0;exitDy=0;endArrow=none;endFill=0;" edge="1" parent="1" source="fW53wgLgkCDjHRpeZXKi-9">
          <mxGeometry relative="1" as="geometry">
            <mxPoint x="130" y="140" as="targetPoint" />
          </mxGeometry>
        </mxCell>
        <mxCell id="fW53wgLgkCDjHRpeZXKi-9" value="&lt;font style=&quot;font-size: 22px;&quot;&gt;+&lt;/font&gt;" style="ellipse;whiteSpace=wrap;html=1;aspect=fixed;" vertex="1" parent="1">
          <mxGeometry x="270" y="190" width="50" height="50" as="geometry" />
        </mxCell>
        <mxCell id="fW53wgLgkCDjHRpeZXKi-10" style="edgeStyle=orthogonalEdgeStyle;rounded=0;orthogonalLoop=1;jettySize=auto;html=1;entryX=-0.021;entryY=0.2;entryDx=0;entryDy=0;entryPerimeter=0;" edge="1" parent="1" source="fW53wgLgkCDjHRpeZXKi-9" target="fW53wgLgkCDjHRpeZXKi-3">
          <mxGeometry relative="1" as="geometry" />
        </mxCell>
        <mxCell id="fW53wgLgkCDjHRpeZXKi-11" style="edgeStyle=orthogonalEdgeStyle;rounded=0;orthogonalLoop=1;jettySize=auto;html=1;exitX=0.5;exitY=1;exitDx=0;exitDy=0;entryX=0.5;entryY=1;entryDx=0;entryDy=0;" edge="1" parent="1" source="fW53wgLgkCDjHRpeZXKi-12" target="fW53wgLgkCDjHRpeZXKi-3">
          <mxGeometry relative="1" as="geometry" />
        </mxCell>
        <mxCell id="fW53wgLgkCDjHRpeZXKi-12" value="&lt;p style=&quot;line-height: 120%;&quot;&gt;&lt;br&gt;&lt;/p&gt;&lt;p style=&quot;line-height: 120%;&quot;&gt;&lt;br&gt;&lt;/p&gt;" style="shape=offPageConnector;whiteSpace=wrap;html=1;rotation=-90;" vertex="1" parent="1">
          <mxGeometry x="90" y="390" width="30" height="30" as="geometry" />
        </mxCell>
        <mxCell id="fW53wgLgkCDjHRpeZXKi-13" style="edgeStyle=orthogonalEdgeStyle;rounded=0;orthogonalLoop=1;jettySize=auto;html=1;exitX=0.5;exitY=1;exitDx=0;exitDy=0;entryX=0;entryY=0.5;entryDx=0;entryDy=0;" edge="1" parent="1" source="fW53wgLgkCDjHRpeZXKi-14" target="fW53wgLgkCDjHRpeZXKi-4">
          <mxGeometry relative="1" as="geometry" />
        </mxCell>
        <mxCell id="fW53wgLgkCDjHRpeZXKi-14" value="&lt;p style=&quot;line-height: 120%;&quot;&gt;&lt;br&gt;&lt;/p&gt;&lt;p style=&quot;line-height: 120%;&quot;&gt;&lt;br&gt;&lt;/p&gt;" style="shape=offPageConnector;whiteSpace=wrap;html=1;rotation=-90;" vertex="1" parent="1">
          <mxGeometry x="90" y="290" width="30" height="30" as="geometry" />
        </mxCell>
        <mxCell id="fW53wgLgkCDjHRpeZXKi-15" value="&lt;font style=&quot;font-size: 22px;&quot;&gt;CLK&lt;/font&gt;" style="text;html=1;align=center;verticalAlign=middle;resizable=0;points=[];autosize=1;strokeColor=none;fillColor=none;" vertex="1" parent="1">
          <mxGeometry x="20" y="285" width="70" height="40" as="geometry" />
        </mxCell>
        <mxCell id="fW53wgLgkCDjHRpeZXKi-16" style="edgeStyle=orthogonalEdgeStyle;rounded=0;orthogonalLoop=1;jettySize=auto;html=1;exitX=0.5;exitY=1;exitDx=0;exitDy=0;" edge="1" parent="1" source="fW53wgLgkCDjHRpeZXKi-17" target="fW53wgLgkCDjHRpeZXKi-3">
          <mxGeometry relative="1" as="geometry" />
        </mxCell>
        <mxCell id="fW53wgLgkCDjHRpeZXKi-17" value="&lt;p style=&quot;line-height: 120%;&quot;&gt;&lt;br&gt;&lt;/p&gt;&lt;p style=&quot;line-height: 120%;&quot;&gt;&lt;br&gt;&lt;/p&gt;" style="shape=offPageConnector;whiteSpace=wrap;html=1;rotation=-90;" vertex="1" parent="1">
          <mxGeometry x="90" y="245" width="30" height="30" as="geometry" />
        </mxCell>
        <mxCell id="fW53wgLgkCDjHRpeZXKi-18" value="&lt;font style=&quot;font-size: 22px;&quot;&gt;EN&lt;/font&gt;" style="text;html=1;align=center;verticalAlign=middle;resizable=0;points=[];autosize=1;strokeColor=none;fillColor=none;" vertex="1" parent="1">
          <mxGeometry x="40" y="240" width="50" height="40" as="geometry" />
        </mxCell>
        <mxCell id="fW53wgLgkCDjHRpeZXKi-19" value="" style="endArrow=none;html=1;rounded=0;" edge="1" parent="1">
          <mxGeometry width="50" height="50" relative="1" as="geometry">
            <mxPoint x="110" y="140" as="sourcePoint" />
            <mxPoint x="160" y="140" as="targetPoint" />
          </mxGeometry>
        </mxCell>
        <mxCell id="fW53wgLgkCDjHRpeZXKi-20" value="&lt;font style=&quot;font-size: 20px;&quot;&gt;&#39;1&#39;&lt;/font&gt;" style="text;html=1;strokeColor=none;fillColor=none;align=center;verticalAlign=middle;whiteSpace=wrap;rounded=0;" vertex="1" parent="1">
          <mxGeometry x="100" y="110" width="60" height="30" as="geometry" />
        </mxCell>
        <mxCell id="fW53wgLgkCDjHRpeZXKi-21" style="edgeStyle=orthogonalEdgeStyle;rounded=0;orthogonalLoop=1;jettySize=auto;html=1;exitX=0;exitY=1;exitDx=0;exitDy=0;entryX=0.5;entryY=0;entryDx=0;entryDy=0;endArrow=none;endFill=0;" edge="1" parent="1" source="fW53wgLgkCDjHRpeZXKi-23" target="fW53wgLgkCDjHRpeZXKi-49">
          <mxGeometry relative="1" as="geometry" />
        </mxCell>
        <mxCell id="fW53wgLgkCDjHRpeZXKi-22" style="edgeStyle=orthogonalEdgeStyle;rounded=0;orthogonalLoop=1;jettySize=auto;html=1;exitX=0;exitY=0;exitDx=0;exitDy=0;endArrow=none;endFill=0;" edge="1" parent="1" source="fW53wgLgkCDjHRpeZXKi-23">
          <mxGeometry relative="1" as="geometry">
            <mxPoint x="630" y="460" as="targetPoint" />
          </mxGeometry>
        </mxCell>
        <mxCell id="fW53wgLgkCDjHRpeZXKi-23" value="&lt;span style=&quot;font-size: 22px;&quot;&gt;&amp;gt;=&lt;/span&gt;" style="ellipse;whiteSpace=wrap;html=1;aspect=fixed;" vertex="1" parent="1">
          <mxGeometry x="700" y="650" width="50" height="50" as="geometry" />
        </mxCell>
        <mxCell id="fW53wgLgkCDjHRpeZXKi-24" style="edgeStyle=orthogonalEdgeStyle;rounded=0;orthogonalLoop=1;jettySize=auto;html=1;exitX=1;exitY=0.5;exitDx=0;exitDy=0;entryX=0.5;entryY=0;entryDx=0;entryDy=0;" edge="1" parent="1" source="fW53wgLgkCDjHRpeZXKi-7" target="fW53wgLgkCDjHRpeZXKi-9">
          <mxGeometry relative="1" as="geometry">
            <Array as="points">
              <mxPoint x="606" y="215" />
              <mxPoint x="606" y="120" />
              <mxPoint x="295" y="120" />
            </Array>
          </mxGeometry>
        </mxCell>
        <mxCell id="fW53wgLgkCDjHRpeZXKi-25" value="&lt;p style=&quot;line-height: 120%;&quot;&gt;&lt;br&gt;&lt;/p&gt;&lt;p style=&quot;line-height: 120%;&quot;&gt;&lt;br&gt;&lt;/p&gt;" style="shape=offPageConnector;whiteSpace=wrap;html=1;rotation=-90;" vertex="1" parent="1">
          <mxGeometry x="1054" y="220" width="30" height="30" as="geometry" />
        </mxCell>
        <mxCell id="fW53wgLgkCDjHRpeZXKi-26" value="&lt;font style=&quot;font-size: 22px;&quot;&gt;FIN&lt;/font&gt;" style="text;html=1;align=center;verticalAlign=middle;resizable=0;points=[];autosize=1;strokeColor=none;fillColor=none;" vertex="1" parent="1">
          <mxGeometry x="1079" y="215" width="60" height="40" as="geometry" />
        </mxCell>
        <mxCell id="fW53wgLgkCDjHRpeZXKi-27" value="&lt;p style=&quot;line-height: 120%;&quot;&gt;&lt;br&gt;&lt;/p&gt;&lt;p style=&quot;line-height: 120%;&quot;&gt;&lt;br&gt;&lt;/p&gt;" style="shape=offPageConnector;whiteSpace=wrap;html=1;rotation=-90;" vertex="1" parent="1">
          <mxGeometry x="1030" y="575" width="30" height="30" as="geometry" />
        </mxCell>
        <mxCell id="fW53wgLgkCDjHRpeZXKi-28" value="&lt;font style=&quot;font-size: 22px;&quot;&gt;FEU&lt;/font&gt;" style="text;html=1;align=center;verticalAlign=middle;resizable=0;points=[];autosize=1;strokeColor=none;fillColor=none;" vertex="1" parent="1">
          <mxGeometry x="1050" y="570" width="70" height="40" as="geometry" />
        </mxCell>
        <mxCell id="fW53wgLgkCDjHRpeZXKi-29" style="edgeStyle=orthogonalEdgeStyle;rounded=0;orthogonalLoop=1;jettySize=auto;html=1;exitX=0;exitY=0;exitDx=0;exitDy=0;entryX=0.5;entryY=1;entryDx=0;entryDy=0;endArrow=none;endFill=0;" edge="1" parent="1" source="fW53wgLgkCDjHRpeZXKi-30" target="fW53wgLgkCDjHRpeZXKi-32">
          <mxGeometry relative="1" as="geometry" />
        </mxCell>
        <mxCell id="fW53wgLgkCDjHRpeZXKi-30" value="&lt;span style=&quot;font-size: 22px;&quot;&gt;&amp;gt;=&lt;/span&gt;" style="ellipse;whiteSpace=wrap;html=1;aspect=fixed;" vertex="1" parent="1">
          <mxGeometry x="827" y="420" width="50" height="50" as="geometry" />
        </mxCell>
        <mxCell id="fW53wgLgkCDjHRpeZXKi-31" value="" style="endArrow=none;html=1;rounded=0;exitX=0;exitY=1;exitDx=0;exitDy=0;" edge="1" parent="1" source="fW53wgLgkCDjHRpeZXKi-32">
          <mxGeometry width="50" height="50" relative="1" as="geometry">
            <mxPoint x="700" y="404.17" as="sourcePoint" />
            <mxPoint x="770" y="400" as="targetPoint" />
            <Array as="points">
              <mxPoint x="730" y="400" />
            </Array>
          </mxGeometry>
        </mxCell>
        <mxCell id="fW53wgLgkCDjHRpeZXKi-32" value="&lt;span style=&quot;font-size: 20px;&quot;&gt;delai&lt;/span&gt;" style="text;html=1;strokeColor=none;fillColor=none;align=center;verticalAlign=middle;whiteSpace=wrap;rounded=0;" vertex="1" parent="1">
          <mxGeometry x="700" y="370" width="60" height="30" as="geometry" />
        </mxCell>
        <mxCell id="fW53wgLgkCDjHRpeZXKi-33" style="edgeStyle=orthogonalEdgeStyle;rounded=0;orthogonalLoop=1;jettySize=auto;html=1;exitX=1;exitY=0.5;exitDx=0;exitDy=0;entryX=0;entryY=1;entryDx=0;entryDy=0;" edge="1" parent="1" source="fW53wgLgkCDjHRpeZXKi-7" target="fW53wgLgkCDjHRpeZXKi-30">
          <mxGeometry relative="1" as="geometry">
            <mxPoint x="650" y="470" as="targetPoint" />
            <Array as="points">
              <mxPoint x="630" y="215" />
              <mxPoint x="630" y="463" />
            </Array>
          </mxGeometry>
        </mxCell>
        <mxCell id="fW53wgLgkCDjHRpeZXKi-34" style="edgeStyle=orthogonalEdgeStyle;rounded=0;orthogonalLoop=1;jettySize=auto;html=1;exitX=1;exitY=0.5;exitDx=0;exitDy=-5;exitPerimeter=0;entryX=0.5;entryY=0;entryDx=0;entryDy=0;" edge="1" parent="1" source="fW53wgLgkCDjHRpeZXKi-37" target="fW53wgLgkCDjHRpeZXKi-25">
          <mxGeometry relative="1" as="geometry" />
        </mxCell>
        <mxCell id="fW53wgLgkCDjHRpeZXKi-35" style="edgeStyle=orthogonalEdgeStyle;rounded=0;orthogonalLoop=1;jettySize=auto;html=1;exitX=0;exitY=0.21666666666666667;exitDx=0;exitDy=3;exitPerimeter=0;endArrow=none;endFill=0;" edge="1" parent="1" source="fW53wgLgkCDjHRpeZXKi-37">
          <mxGeometry relative="1" as="geometry">
            <mxPoint x="854" y="209.5" as="targetPoint" />
          </mxGeometry>
        </mxCell>
        <mxCell id="fW53wgLgkCDjHRpeZXKi-36" style="edgeStyle=orthogonalEdgeStyle;rounded=0;orthogonalLoop=1;jettySize=auto;html=1;exitX=0;exitY=0.65;exitDx=0;exitDy=3;exitPerimeter=0;endArrow=none;endFill=0;" edge="1" parent="1" source="fW53wgLgkCDjHRpeZXKi-37">
          <mxGeometry relative="1" as="geometry">
            <mxPoint x="854" y="260.75" as="targetPoint" />
          </mxGeometry>
        </mxCell>
        <mxCell id="fW53wgLgkCDjHRpeZXKi-37" value="Mux" style="shadow=0;dashed=0;align=center;html=1;strokeWidth=1;shape=mxgraph.electrical.abstract.mux2;whiteSpace=wrap;" vertex="1" parent="1">
          <mxGeometry x="924" y="180" width="80" height="120" as="geometry" />
        </mxCell>
        <mxCell id="fW53wgLgkCDjHRpeZXKi-38" style="edgeStyle=orthogonalEdgeStyle;rounded=0;orthogonalLoop=1;jettySize=auto;html=1;exitX=1;exitY=0.5;exitDx=0;exitDy=0;entryX=0.375;entryY=1;entryDx=10;entryDy=0;entryPerimeter=0;endArrow=none;endFill=0;" edge="1" parent="1" source="fW53wgLgkCDjHRpeZXKi-30" target="fW53wgLgkCDjHRpeZXKi-37">
          <mxGeometry relative="1" as="geometry" />
        </mxCell>
        <mxCell id="fW53wgLgkCDjHRpeZXKi-39" value="&lt;font style=&quot;font-size: 20px;&quot;&gt;&#39;1&#39;&lt;/font&gt;" style="text;html=1;strokeColor=none;fillColor=none;align=center;verticalAlign=middle;whiteSpace=wrap;rounded=0;" vertex="1" parent="1">
          <mxGeometry x="801" y="245" width="60" height="30" as="geometry" />
        </mxCell>
        <mxCell id="fW53wgLgkCDjHRpeZXKi-40" value="" style="endArrow=none;html=1;rounded=0;" edge="1" parent="1">
          <mxGeometry width="50" height="50" relative="1" as="geometry">
            <mxPoint x="854" y="240" as="sourcePoint" />
            <mxPoint x="854" y="290" as="targetPoint" />
          </mxGeometry>
        </mxCell>
        <mxCell id="fW53wgLgkCDjHRpeZXKi-41" value="" style="endArrow=none;html=1;rounded=0;" edge="1" parent="1">
          <mxGeometry width="50" height="50" relative="1" as="geometry">
            <mxPoint x="854" y="180" as="sourcePoint" />
            <mxPoint x="854" y="230" as="targetPoint" />
          </mxGeometry>
        </mxCell>
        <mxCell id="fW53wgLgkCDjHRpeZXKi-42" value="&lt;font style=&quot;font-size: 20px;&quot;&gt;&#39;0&#39;&lt;/font&gt;" style="text;html=1;strokeColor=none;fillColor=none;align=center;verticalAlign=middle;whiteSpace=wrap;rounded=0;" vertex="1" parent="1">
          <mxGeometry x="801" y="190" width="60" height="30" as="geometry" />
        </mxCell>
        <mxCell id="fW53wgLgkCDjHRpeZXKi-43" style="edgeStyle=orthogonalEdgeStyle;rounded=0;orthogonalLoop=1;jettySize=auto;html=1;exitX=1;exitY=0.5;exitDx=0;exitDy=-5;exitPerimeter=0;entryX=0.5;entryY=0;entryDx=0;entryDy=0;endArrow=none;endFill=0;" edge="1" parent="1" source="fW53wgLgkCDjHRpeZXKi-46" target="fW53wgLgkCDjHRpeZXKi-27">
          <mxGeometry relative="1" as="geometry" />
        </mxCell>
        <mxCell id="fW53wgLgkCDjHRpeZXKi-44" style="edgeStyle=orthogonalEdgeStyle;rounded=0;orthogonalLoop=1;jettySize=auto;html=1;exitX=0;exitY=0.65;exitDx=0;exitDy=3;exitPerimeter=0;endArrow=none;endFill=0;" edge="1" parent="1" source="fW53wgLgkCDjHRpeZXKi-46">
          <mxGeometry relative="1" as="geometry">
            <mxPoint x="840" y="559.5" as="targetPoint" />
          </mxGeometry>
        </mxCell>
        <mxCell id="fW53wgLgkCDjHRpeZXKi-45" style="edgeStyle=orthogonalEdgeStyle;rounded=0;orthogonalLoop=1;jettySize=auto;html=1;exitX=0.375;exitY=1;exitDx=10;exitDy=0;exitPerimeter=0;entryX=1;entryY=0.5;entryDx=0;entryDy=0;endArrow=none;endFill=0;" edge="1" parent="1" source="fW53wgLgkCDjHRpeZXKi-46" target="fW53wgLgkCDjHRpeZXKi-30">
          <mxGeometry relative="1" as="geometry" />
        </mxCell>
        <mxCell id="fW53wgLgkCDjHRpeZXKi-46" value="Mux" style="shadow=0;dashed=0;align=center;html=1;strokeWidth=1;shape=mxgraph.electrical.abstract.mux2;whiteSpace=wrap;gradientColor=none;flipH=0;flipV=1;" vertex="1" parent="1">
          <mxGeometry x="930" y="525" width="80" height="120" as="geometry" />
        </mxCell>
        <mxCell id="fW53wgLgkCDjHRpeZXKi-47" value="" style="endArrow=none;html=1;rounded=0;" edge="1" parent="1">
          <mxGeometry width="50" height="50" relative="1" as="geometry">
            <mxPoint x="840" y="530" as="sourcePoint" />
            <mxPoint x="840" y="580" as="targetPoint" />
          </mxGeometry>
        </mxCell>
        <mxCell id="fW53wgLgkCDjHRpeZXKi-48" value="&lt;font style=&quot;font-size: 20px;&quot;&gt;&#39;0&#39;&lt;/font&gt;" style="text;html=1;strokeColor=none;fillColor=none;align=center;verticalAlign=middle;whiteSpace=wrap;rounded=0;" vertex="1" parent="1">
          <mxGeometry x="790" y="540" width="60" height="30" as="geometry" />
        </mxCell>
        <mxCell id="fW53wgLgkCDjHRpeZXKi-49" value="&lt;span style=&quot;font-size: 20px;&quot;&gt;delai_jaune&lt;/span&gt;" style="text;html=1;strokeColor=none;fillColor=none;align=center;verticalAlign=middle;whiteSpace=wrap;rounded=0;" vertex="1" parent="1">
          <mxGeometry x="580" y="730" width="60" height="30" as="geometry" />
        </mxCell>
        <mxCell id="fW53wgLgkCDjHRpeZXKi-50" value="" style="endArrow=none;html=1;rounded=0;exitX=0;exitY=1;exitDx=0;exitDy=0;" edge="1" parent="1">
          <mxGeometry width="50" height="50" relative="1" as="geometry">
            <mxPoint x="575" y="730" as="sourcePoint" />
            <mxPoint x="645" y="730" as="targetPoint" />
            <Array as="points">
              <mxPoint x="605" y="730" />
            </Array>
          </mxGeometry>
        </mxCell>
        <mxCell id="fW53wgLgkCDjHRpeZXKi-51" style="edgeStyle=orthogonalEdgeStyle;rounded=0;orthogonalLoop=1;jettySize=auto;html=1;exitX=0.16;exitY=0.55;exitDx=0;exitDy=0;exitPerimeter=0;entryX=1;entryY=0.5;entryDx=0;entryDy=0;endArrow=none;endFill=0;" edge="1" parent="1" source="fW53wgLgkCDjHRpeZXKi-52" target="fW53wgLgkCDjHRpeZXKi-23">
          <mxGeometry relative="1" as="geometry" />
        </mxCell>
        <mxCell id="fW53wgLgkCDjHRpeZXKi-52" value="Jaune Logic" style="ellipse;shape=cloud;whiteSpace=wrap;html=1;" vertex="1" parent="1">
          <mxGeometry x="760" y="635" width="120" height="80" as="geometry" />
        </mxCell>
        <mxCell id="fW53wgLgkCDjHRpeZXKi-53" style="edgeStyle=orthogonalEdgeStyle;rounded=0;orthogonalLoop=1;jettySize=auto;html=1;exitX=0.875;exitY=0.5;exitDx=0;exitDy=0;exitPerimeter=0;entryX=0;entryY=0.21666666666666667;entryDx=0;entryDy=3;entryPerimeter=0;" edge="1" parent="1" source="fW53wgLgkCDjHRpeZXKi-52" target="fW53wgLgkCDjHRpeZXKi-46">
          <mxGeometry relative="1" as="geometry" />
        </mxCell>
      </root>
    </mxGraphModel>
  </diagram>
</mxfile>
